<svg width="34" height="28" viewBox="0 0 34 28" fill="none" xmlns="http://www.w3.org/2000/svg">
<path d="M0.208008 27.736C0.208008 24.728 0.272008 21.176 0.400008 17.08C0.592008 11.256 1.52001 7.03198 3.18401 4.40799C4.84801 1.78399 7.79201 0.471985 12.016 0.471985L13.168 5.36798C10.864 5.43198 9.29601 6.19998 8.46401 7.67198C7.69601 9.07998 7.31201 11.192 7.31201 14.008H14.032V27.736H0.208008ZM19.888 27.736C19.888 24.728 19.952 21.176 20.08 17.08C20.272 11.256 21.2 7.03198 22.864 4.40799C24.528 1.78399 27.472 0.471985 31.696 0.471985L32.848 5.36798C30.544 5.43198 28.976 6.19998 28.144 7.67198C27.376 9.07998 26.992 11.192 26.992 14.008H33.712V27.736H19.888Z" fill="#F7654A"/>
</svg>
