<svg width="41" height="41" viewBox="0 0 41 41" fill="none" xmlns="http://www.w3.org/2000/svg">
<path d="M35.0451 5.95494C31.1824 2.12446 26.0966 0 20.6566 0C15.2167 0 10.1309 2.12446 6.26823 5.95494C3.27467 8.9485 1.31115 12.7468 0.602994 16.8348C0.538616 17.2532 0.474238 17.6717 0.442049 18.0901C0.40986 18.5086 0.377671 18.927 0.345482 19.3455C0.313293 19.6674 0.313293 20.0215 0.313293 20.3433V23.1116V24.367V25.6223V40.7189H15.4099H16.6652H17.9206C17.9528 40.3648 17.9528 40.0429 17.9528 39.6888V36.9528H16.6974H4.07939V25.5901V23.1116V20.3755C4.07939 20.0215 4.07939 19.6996 4.11158 19.3455C4.14377 18.927 4.17595 18.5086 4.24033 18.0901C4.30471 17.6717 4.36909 17.2532 4.46565 16.8348C5.14162 13.6803 6.75106 10.8476 8.9399 8.62661C11.9335 5.63305 16.0858 3.76609 20.6566 3.76609C29.7983 3.76609 37.2339 11.2017 37.2339 20.3433C37.2339 24.9142 35.3669 29.0665 32.3734 32.0601C30.1524 34.2811 27.3197 35.8584 24.1652 36.5343V36.8884V39.6567C24.1652 39.9142 24.1652 40.1395 24.1652 40.397C28.2532 39.6888 32.0515 37.7253 35.0451 34.7318C38.8755 30.9013 41 25.7833 41 20.3433C41 14.9034 38.8755 9.78541 35.0451 5.95494Z" fill="#F7654A"/>
</svg>
