<svg width="41" height="41" viewBox="0 0 41 41" fill="none" xmlns="http://www.w3.org/2000/svg">
<path d="M23.0794 4.07957H24.3348H25.5901H36.9528V15.4422V16.6976V17.953V20.689C36.9528 21.0431 36.9528 21.365 36.9206 21.7191C36.8884 22.1375 36.8562 22.556 36.7919 22.9744C36.7275 23.3929 36.6631 23.8113 36.5665 24.2298C35.8906 27.3843 34.2811 30.2169 32.0923 32.4379C29.0987 35.4315 24.9464 37.2985 20.3755 37.2985C11.2339 37.2985 3.79828 29.8628 3.79828 20.7212C3.79828 16.1504 5.66524 11.998 8.6588 9.00446C10.8798 6.78343 13.7124 5.20618 16.867 4.53021V1.4079C16.867 1.15039 16.867 0.925064 16.867 0.667553C12.779 1.37571 8.98069 3.33923 5.98713 6.33279C2.12446 10.0989 0 15.2169 0 20.6568C0 26.0967 2.12446 31.1826 5.95494 35.0452C9.78541 38.8757 14.9034 41.0002 20.3433 41.0002C25.7833 41.0002 30.8691 38.8757 34.7318 35.0452C38.3369 31.4401 40.4292 26.7083 40.6545 21.6547C40.6545 21.4937 40.6545 21.3328 40.6867 21.1718C40.6867 21.0753 40.6867 21.0109 40.6867 20.9143C40.6867 20.8178 40.6867 20.7534 40.6867 20.6568V17.8886V0.313477H25.5901H24.3348H23.0794C23.0472 0.667554 23.0472 0.989442 23.0472 1.34352L23.0794 4.07957Z" fill="#F7654A"/>
</svg>
